<svg width="40" height="40" viewBox="0 0 40 40" fill="none" xmlns="http://www.w3.org/2000/svg">
<path d="M10 23.75H11.25V25H10V23.75Z" fill="#DC3834"/>
<path d="M11.25 23.75H12.5V25H11.25V23.75Z" fill="#EE963E"/>
<path d="M12.5 23.75H13.75V25H12.5V23.75Z" fill="#F9E759"/>
<path d="M13.75 23.75H15V25H13.75V23.75Z" fill="#60B157"/>
<path d="M15 23.75H16.25V25H15V23.75Z" fill="#72F9FC"/>
<path d="M15 22.5H16.25V23.75H15V22.5Z" fill="#72F9FC"/>
<path d="M16.25 21.25H17.5V22.5H16.25V21.25Z" fill="#72F9FC"/>
<path d="M18.75 21.25H20V22.5H18.75V21.25Z" fill="#4A99D3"/>
<path d="M17.5 21.25H18.75V22.5H17.5V21.25Z" fill="#4A99D3"/>
<path d="M20 21.25H21.25V22.5H20V21.25Z" fill="#4A99D3"/>
<path d="M21.25 21.25H22.5V22.5H21.25V21.25Z" fill="#4A99D3"/>
<path d="M18.75 20H20V21.25H18.75V20Z" fill="#72F9FC"/>
<path d="M17.5 20H18.75V21.25H17.5V20Z" fill="#72F9FC"/>
<path d="M20 20H21.25V21.25H20V20Z" fill="#72F9FC"/>
<path d="M21.25 20H22.5V21.25H21.25V20Z" fill="#72F9FC"/>
<path d="M22.5 21.25H23.75V22.5H22.5V21.25Z" fill="#72F9FC"/>
<path d="M23.75 22.5H25V23.75H23.75V22.5Z" fill="#72F9FC"/>
<path d="M23.75 23.75H25V25H23.75V23.75Z" fill="#72F9FC"/>
<path d="M13.75 22.5H15V23.75H13.75V22.5Z" fill="#60B157"/>
<path d="M13.75 21.25H15V22.5H13.75V21.25Z" fill="#60B157"/>
<path d="M15 20H16.25V21.25H15V20Z" fill="#60B157"/>
<path d="M15 21.25H16.25V22.5H15V21.25Z" fill="#60B157"/>
<path d="M16.25 18.75H17.5V20H16.25V18.75Z" fill="#60B157"/>
<path d="M18.75 18.75H20V20H18.75V18.75Z" fill="#60B157"/>
<path d="M17.5 18.75H18.75V20H17.5V18.75Z" fill="#60B157"/>
<path d="M20 18.75H21.25V20H20V18.75Z" fill="#60B157"/>
<path d="M22.5 18.75H21.25V20H22.5V18.75Z" fill="#60B157"/>
<path d="M23.75 18.75H22.5V20H23.75V18.75Z" fill="#60B157"/>
<path d="M23.75 20H22.5V21.25H23.75V20Z" fill="#60B157"/>
<path d="M25 20H23.75V21.25H25V20Z" fill="#60B157"/>
<path d="M25 21.25H23.75V22.5H25V21.25Z" fill="#60B157"/>
<path d="M26.25 21.25H25V22.5H26.25V21.25Z" fill="#60B157"/>
<path d="M26.25 22.5H25V23.75H26.25V22.5Z" fill="#60B157"/>
<path d="M26.25 23.75H25V25H26.25V23.75Z" fill="#60B157"/>
<path d="M16.25 20H17.5V21.25H16.25V20Z" fill="#60B157"/>
<path d="M12.5 22.5H13.75V23.75H12.5V22.5Z" fill="#F9E759"/>
<path d="M12.5 21.25H13.75V22.5H12.5V21.25Z" fill="#F9E759"/>
<path d="M13.75 20H15V21.25H13.75V20Z" fill="#F9E759"/>
<path d="M15 18.75H16.25V20H15V18.75Z" fill="#F9E759"/>
<path d="M16.25 17.5H17.5V18.75H16.25V17.5Z" fill="#F9E759"/>
<path d="M18.75 17.5H20V18.75H18.75V17.5Z" fill="#F9E759"/>
<path d="M17.5 17.5H18.75V18.75H17.5V17.5Z" fill="#F9E759"/>
<path d="M20 17.5H21.25V18.75H20V17.5Z" fill="#F9E759"/>
<path d="M21.25 17.5H22.5V18.75H21.25V17.5Z" fill="#F9E759"/>
<path d="M22.5 17.5H23.75V18.75H22.5V17.5Z" fill="#F9E759"/>
<path d="M23.75 18.75H25V20H23.75V18.75Z" fill="#F9E759"/>
<path d="M25 20H26.25V21.25H25V20Z" fill="#F9E759"/>
<path d="M26.25 21.25H27.5V22.5H26.25V21.25Z" fill="#F9E759"/>
<path d="M26.25 22.5H27.5V23.75H26.25V22.5Z" fill="#F9E759"/>
<path d="M26.25 23.75H27.5V25H26.25V23.75Z" fill="#F9E759"/>
<path d="M11.25 22.5H12.5V23.75H11.25V22.5Z" fill="#EE963E"/>
<path d="M12.5 20H13.75V21.25H12.5V20Z" fill="#EE963E"/>
<path d="M13.75 18.75H15V20H13.75V18.75Z" fill="#EE963E"/>
<path d="M15 17.5H16.25V18.75H15V17.5Z" fill="#EE963E"/>
<path d="M16.25 16.25H17.5V17.5H16.25V16.25Z" fill="#EE963E"/>
<path d="M18.75 16.25H20V17.5H18.75V16.25Z" fill="#EE963E"/>
<path d="M17.5 16.25H18.75V17.5H17.5V16.25Z" fill="#EE963E"/>
<path d="M20 16.25H21.25V17.5H20V16.25Z" fill="#EE963E"/>
<path d="M21.25 16.25H22.5V17.5H21.25V16.25Z" fill="#EE963E"/>
<path d="M22.5 16.25H23.75V17.5H22.5V16.25Z" fill="#EE963E"/>
<path d="M23.75 17.5H25V18.75H23.75V17.5Z" fill="#EE963E"/>
<path d="M25 18.75H26.25V20H25V18.75Z" fill="#EE963E"/>
<path d="M26.25 20H27.5V21.25H26.25V20Z" fill="#EE963E"/>
<path d="M27.5 22.5H28.75V23.75H27.5V22.5Z" fill="#EE963E"/>
<path d="M27.5 23.75H28.75V25H27.5V23.75Z" fill="#EE963E"/>
<path d="M10 22.5H11.25V23.75H10V22.5Z" fill="#DC3834"/>
<path d="M10 21.25H11.25V22.5H10V21.25Z" fill="#DC3834"/>
<path d="M11.25 20H12.5V21.25H11.25V20Z" fill="#DC3834"/>
<path d="M11.25 21.25H12.5V22.5H11.25V21.25Z" fill="#DC3834"/>
<path d="M12.5 18.75H13.75V20H12.5V18.75Z" fill="#DC3834"/>
<path d="M11.25 18.75H12.5V20H11.25V18.75Z" fill="#DC3834"/>
<path d="M13.75 16.25H15V17.5H13.75V16.25Z" fill="#DC3834"/>
<path d="M13.75 17.5H15V18.75H13.75V17.5Z" fill="#DC3834"/>
<path d="M12.5 17.5H13.75V18.75H12.5V17.5Z" fill="#DC3834"/>
<path d="M15 16.25H16.25V17.5H15V16.25Z" fill="#DC3834"/>
<path d="M15 15H16.25V16.25H15V15Z" fill="#DC3834"/>
<path d="M16.25 15H17.5V16.25H16.25V15Z" fill="#DC3834"/>
<path d="M18.75 15H20V16.25H18.75V15Z" fill="#DC3834"/>
<path d="M17.5 15H18.75V16.25H17.5V15Z" fill="#DC3834"/>
<path d="M20 15H21.25V16.25H20V15Z" fill="#DC3834"/>
<path d="M21.25 15H22.5V16.25H21.25V15Z" fill="#DC3834"/>
<path d="M22.5 15H23.75V16.25H22.5V15Z" fill="#DC3834"/>
<path d="M23.75 15H25V16.25H23.75V15Z" fill="#DC3834"/>
<path d="M23.75 16.25H25V17.5H23.75V16.25Z" fill="#DC3834"/>
<path d="M25 16.25H26.25V17.5H25V16.25Z" fill="#DC3834"/>
<path d="M25 17.5H26.25V18.75H25V17.5Z" fill="#DC3834"/>
<path d="M26.25 17.5H27.5V18.75H26.25V17.5Z" fill="#DC3834"/>
<path d="M26.25 18.75H27.5V20H26.25V18.75Z" fill="#DC3834"/>
<path d="M27.5 18.75H28.75V20H27.5V18.75Z" fill="#DC3834"/>
<path d="M27.5 21.25H28.75V22.5H27.5V21.25Z" fill="#DC3834"/>
<path d="M27.5 20H28.75V21.25H27.5V20Z" fill="#DC3834"/>
<path d="M28.75 21.25H30V22.5H28.75V21.25Z" fill="#DC3834"/>
<path d="M28.75 22.5H30V23.75H28.75V22.5Z" fill="#DC3834"/>
<path d="M28.75 23.75H30V25H28.75V23.75Z" fill="#DC3834"/>
</svg>
