<svg width="20" height="10" viewBox="0 0 20 10" fill="none" xmlns="http://www.w3.org/2000/svg">
<g clip-path="url(#clip0_27_1158)">
<path d="M0 8.75H1.25V10H0V8.75Z" fill="#DC3834"/>
<path d="M1.25 8.75H2.5V10H1.25V8.75Z" fill="#EE963E"/>
<path d="M2.5 8.75H3.75V10H2.5V8.75Z" fill="#F9E759"/>
<path d="M3.75 8.75H5V10H3.75V8.75Z" fill="#60B157"/>
<path d="M5 8.75H6.25V10H5V8.75Z" fill="#72F9FC"/>
<path d="M5 7.5H6.25V8.75H5V7.5Z" fill="#72F9FC"/>
<path d="M6.25 6.25H7.5V7.5H6.25V6.25Z" fill="#72F9FC"/>
<path d="M8.75 6.25H10V7.5H8.75V6.25Z" fill="#4A99D3"/>
<path d="M7.5 6.25H8.75V7.5H7.5V6.25Z" fill="#4A99D3"/>
<path d="M10 6.25H11.25V7.5H10V6.25Z" fill="#4A99D3"/>
<path d="M11.25 6.25H12.5V7.5H11.25V6.25Z" fill="#4A99D3"/>
<path d="M8.75 5H10V6.25H8.75V5Z" fill="#72F9FC"/>
<path d="M7.5 5H8.75V6.25H7.5V5Z" fill="#72F9FC"/>
<path d="M10 5H11.25V6.25H10V5Z" fill="#72F9FC"/>
<path d="M11.25 5H12.5V6.25H11.25V5Z" fill="#72F9FC"/>
<path d="M12.5 6.25H13.75V7.5H12.5V6.25Z" fill="#72F9FC"/>
<path d="M13.75 7.5H15V8.75H13.75V7.5Z" fill="#72F9FC"/>
<path d="M13.75 8.75H15V10H13.75V8.75Z" fill="#72F9FC"/>
<path d="M3.75 7.5H5V8.75H3.75V7.5Z" fill="#60B157"/>
<path d="M3.75 6.25H5V7.5H3.75V6.25Z" fill="#60B157"/>
<path d="M5 5H6.25V6.25H5V5Z" fill="#60B157"/>
<path d="M5 6.25H6.25V7.5H5V6.25Z" fill="#60B157"/>
<path d="M6.25 3.75H7.5V5H6.25V3.75Z" fill="#60B157"/>
<path d="M8.75 3.75H10V5H8.75V3.75Z" fill="#60B157"/>
<path d="M7.5 3.75H8.75V5H7.5V3.75Z" fill="#60B157"/>
<path d="M10 3.75H11.25V5H10V3.75Z" fill="#60B157"/>
<path d="M12.5 3.75H11.25V5H12.5V3.75Z" fill="#60B157"/>
<path d="M13.75 3.75H12.5V5H13.75V3.75Z" fill="#60B157"/>
<path d="M13.75 5H12.5V6.25H13.75V5Z" fill="#60B157"/>
<path d="M15 5H13.75V6.25H15V5Z" fill="#60B157"/>
<path d="M15 6.25H13.75V7.5H15V6.25Z" fill="#60B157"/>
<path d="M16.25 6.25H15V7.5H16.25V6.25Z" fill="#60B157"/>
<path d="M16.25 7.5H15V8.75H16.25V7.5Z" fill="#60B157"/>
<path d="M16.25 8.75H15V10H16.25V8.75Z" fill="#60B157"/>
<path d="M6.25 5H7.5V6.25H6.25V5Z" fill="#60B157"/>
<path d="M2.5 7.5H3.75V8.75H2.5V7.5Z" fill="#F9E759"/>
<path d="M2.5 6.25H3.75V7.5H2.5V6.25Z" fill="#F9E759"/>
<path d="M3.75 5H5V6.25H3.75V5Z" fill="#F9E759"/>
<path d="M5 3.75H6.25V5H5V3.75Z" fill="#F9E759"/>
<path d="M6.25 2.5H7.5V3.75H6.25V2.5Z" fill="#F9E759"/>
<path d="M8.75 2.5H10V3.75H8.75V2.5Z" fill="#F9E759"/>
<path d="M7.5 2.5H8.75V3.75H7.5V2.5Z" fill="#F9E759"/>
<path d="M10 2.5H11.25V3.75H10V2.5Z" fill="#F9E759"/>
<path d="M11.25 2.5H12.5V3.75H11.25V2.5Z" fill="#F9E759"/>
<path d="M12.5 2.5H13.75V3.75H12.5V2.5Z" fill="#F9E759"/>
<path d="M13.75 3.75H15V5H13.75V3.75Z" fill="#F9E759"/>
<path d="M15 5H16.25V6.25H15V5Z" fill="#F9E759"/>
<path d="M16.25 6.25H17.5V7.5H16.25V6.25Z" fill="#F9E759"/>
<path d="M16.25 7.5H17.5V8.75H16.25V7.5Z" fill="#F9E759"/>
<path d="M16.25 8.75H17.5V10H16.25V8.75Z" fill="#F9E759"/>
<path d="M1.25 7.5H2.5V8.75H1.25V7.5Z" fill="#EE963E"/>
<path d="M2.5 5H3.75V6.25H2.5V5Z" fill="#EE963E"/>
<path d="M3.75 3.75H5V5H3.75V3.75Z" fill="#EE963E"/>
<path d="M5 2.5H6.25V3.75H5V2.5Z" fill="#EE963E"/>
<path d="M6.25 1.25H7.5V2.5H6.25V1.25Z" fill="#EE963E"/>
<path d="M8.75 1.25H10V2.5H8.75V1.25Z" fill="#EE963E"/>
<path d="M7.5 1.25H8.75V2.5H7.5V1.25Z" fill="#EE963E"/>
<path d="M10 1.25H11.25V2.5H10V1.25Z" fill="#EE963E"/>
<path d="M11.25 1.25H12.5V2.5H11.25V1.25Z" fill="#EE963E"/>
<path d="M12.5 1.25H13.75V2.5H12.5V1.25Z" fill="#EE963E"/>
<path d="M13.75 2.5H15V3.75H13.75V2.5Z" fill="#EE963E"/>
<path d="M15 3.75H16.25V5H15V3.75Z" fill="#EE963E"/>
<path d="M16.25 5H17.5V6.25H16.25V5Z" fill="#EE963E"/>
<path d="M17.5 7.5H18.75V8.75H17.5V7.5Z" fill="#EE963E"/>
<path d="M17.5 8.75H18.75V10H17.5V8.75Z" fill="#EE963E"/>
<path d="M0 7.5H1.25V8.75H0V7.5Z" fill="#DC3834"/>
<path d="M0 6.25H1.25V7.5H0V6.25Z" fill="#DC3834"/>
<path d="M1.25 5H2.5V6.25H1.25V5Z" fill="#DC3834"/>
<path d="M1.25 6.25H2.5V7.5H1.25V6.25Z" fill="#DC3834"/>
<path d="M2.5 3.75H3.75V5H2.5V3.75Z" fill="#DC3834"/>
<path d="M1.25 3.75H2.5V5H1.25V3.75Z" fill="#DC3834"/>
<path d="M3.75 1.25H5V2.5H3.75V1.25Z" fill="#DC3834"/>
<path d="M3.75 2.5H5V3.75H3.75V2.5Z" fill="#DC3834"/>
<path d="M2.5 2.5H3.75V3.75H2.5V2.5Z" fill="#DC3834"/>
<path d="M5 1.25H6.25V2.5H5V1.25Z" fill="#DC3834"/>
<path d="M5 0H6.25V1.25H5V0Z" fill="#DC3834"/>
<path d="M6.25 0H7.5V1.25H6.25V0Z" fill="#DC3834"/>
<path d="M8.75 0H10V1.25H8.75V0Z" fill="#DC3834"/>
<path d="M7.5 0H8.75V1.25H7.5V0Z" fill="#DC3834"/>
<path d="M10 0H11.25V1.25H10V0Z" fill="#DC3834"/>
<path d="M11.25 0H12.5V1.25H11.25V0Z" fill="#DC3834"/>
<path d="M12.5 0H13.75V1.25H12.5V0Z" fill="#DC3834"/>
<path d="M13.75 0H15V1.25H13.75V0Z" fill="#DC3834"/>
<path d="M13.75 1.25H15V2.5H13.75V1.25Z" fill="#DC3834"/>
<path d="M15 1.25H16.25V2.5H15V1.25Z" fill="#DC3834"/>
<path d="M15 2.5H16.25V3.75H15V2.5Z" fill="#DC3834"/>
<path d="M16.25 2.5H17.5V3.75H16.25V2.5Z" fill="#DC3834"/>
<path d="M16.25 3.75H17.5V5H16.25V3.75Z" fill="#DC3834"/>
<path d="M17.5 3.75H18.75V5H17.5V3.75Z" fill="#DC3834"/>
<path d="M17.5 6.25H18.75V7.5H17.5V6.25Z" fill="#DC3834"/>
<path d="M17.5 5H18.75V6.25H17.5V5Z" fill="#DC3834"/>
<path d="M18.75 6.25H20V7.5H18.75V6.25Z" fill="#DC3834"/>
<path d="M18.75 7.5H20V8.75H18.75V7.5Z" fill="#DC3834"/>
<path d="M18.75 8.75H20V10H18.75V8.75Z" fill="#DC3834"/>
</g>
<defs>
<clipPath id="clip0_27_1158">
<rect width="20" height="10" fill="white"/>
</clipPath>
</defs>
</svg>
